<?xml version="1.0" encoding="UTF-8" standalone="no"?>
<!-- Created with Inkscape (http://www.inkscape.org/) -->

<svg
   width="2.54cm"
   height="2.54cm"
   viewBox="0 0 0.99999998 0.99999998"
   version="1.1"
   id="svg1"
   xmlns="http://www.w3.org/2000/svg"
   xmlns:svg="http://www.w3.org/2000/svg">
  <defs
     id="defs1" />
  <g
     id="layer1">
    <path
       style="fill:none;stroke:#000000;stroke-width:0.0954648;stroke-linecap:butt;stroke-linejoin:miter;stroke-dasharray:none;stroke-opacity:1"
       d="M -3.6991892e-4,0.61864113 H 0.22604514 V 0.50205915 c 0,-0.0166547 0.0192379,-0.0333091 0.0384758,-0.0333091 l 0.47095817,-5e-8 c 0.0283546,0.001602 0.0384758,0.0166547 0.0384758,0.0333091 l -7.3988e-4,0.11658199 0.22641505,-2e-8"
       id="path2-7-9" />
    <path
       style="fill:none;stroke:#000000;stroke-width:0.0954648;stroke-linecap:butt;stroke-linejoin:miter;stroke-dasharray:none;stroke-opacity:1"
       d="M 0,0.29166668 H 0.22641506 V 0.1750847 c 0,-0.0166547 0.0192379,-0.0333091 0.0384758,-0.0333091 l 0.47095815,-5e-8 c 0.028355,0.001602 0.038476,0.0166547 0.038476,0.0333091 l -7.399e-4,0.11658199 0.22641519,-2e-8"
       id="path2-7-9-5" />
    <path
       style="fill:none;stroke:#000000;stroke-width:0.0954648;stroke-linecap:butt;stroke-linejoin:miter;stroke-dasharray:none;stroke-opacity:1"
       d="M -3.6991892e-4,0.95197448 H 0.22604514 V 0.8353925 c 0,-0.0166547 0.0192379,-0.0333091 0.0384758,-0.0333091 l 0.47095817,-5e-8 c 0.0283546,0.001602 0.0384758,0.0166547 0.0384758,0.0333091 l -7.3988e-4,0.11658199 0.22641509,-2e-8"
       id="path2-7-9-4" />
  </g>
</svg>
